<svg width="18" height="16" viewBox="0 0 18 16" fill="none" xmlns="http://www.w3.org/2000/svg">
<path d="M17.3333 1.34168C16.5 1.75001 15.6833 1.91584 14.8333 2.16668C13.8992 1.11251 12.5142 1.05418 11.1833 1.55251C9.85249 2.05084 8.98082 3.26918 8.99999 4.66668V5.50001C6.29582 5.56918 3.88749 4.33751 2.33332 2.16668C2.33332 2.16668 -1.15168 8.36084 5.66666 11.3333C4.10666 12.3725 2.55082 13.0733 0.666656 13C3.42332 14.5025 6.42749 15.0192 9.02832 14.2642C12.0117 13.3975 14.4633 11.1617 15.4042 7.81251C15.6848 6.7939 15.8242 5.74156 15.8183 4.68501C15.8167 4.47751 17.0767 2.37501 17.3333 1.34084V1.34168Z" stroke="white" stroke-width="1.25" stroke-linecap="round" stroke-linejoin="round"/>
</svg>
